<svg id="svg" version="1.1" xmlns="http://www.w3.org/2000/svg" xmlns:xlink="http://www.w3.org/1999/xlink" width="400" height="400" viewBox="0, 0, 400,400"><g id="svgg"><path id="path0" d="M190.147 40.010 C 75.419 47.907,5.731 168.342,56.473 271.029 C 102.792 364.767,224.916 389.592,304.559 321.460 C 332.769 297.327,353.509 260.104,358.223 225.147 C 358.376 224.015,358.631 222.228,358.790 221.176 C 358.949 220.125,359.234 215.625,359.423 211.176 C 359.611 206.728,359.898 202.926,360.060 202.727 C 360.393 202.320,360.211 198.344,359.753 195.994 C 359.591 195.166,359.371 191.526,359.262 187.906 C 359.154 184.286,358.940 180.596,358.787 179.706 C 358.635 178.816,358.372 176.632,358.203 174.853 C 358.034 173.074,357.715 171.221,357.495 170.735 C 357.275 170.250,357.003 168.926,356.892 167.794 C 356.780 166.662,356.441 165.102,356.138 164.327 C 355.836 163.553,355.585 162.494,355.582 161.974 C 355.578 161.455,355.314 160.452,354.994 159.747 C 354.674 159.042,354.412 158.083,354.412 157.616 C 354.412 157.149,354.161 156.005,353.854 155.075 C 353.548 154.144,352.740 151.662,352.059 149.559 C 349.434 141.457,342.239 124.908,340.294 122.500 C 340.163 122.338,339.625 121.412,339.098 120.441 C 337.499 117.493,332.626 109.868,332.181 109.618 C 331.952 109.488,331.765 109.211,331.765 109.002 C 331.765 108.792,331.500 108.381,331.176 108.088 C 330.853 107.795,330.588 107.438,330.588 107.295 C 330.588 106.950,324.304 98.599,323.549 97.941 C 323.456 97.860,322.395 96.603,321.191 95.147 C 317.868 91.129,307.323 80.675,303.676 77.784 C 302.868 77.142,302.140 76.539,302.059 76.442 C 301.268 75.497,289.353 66.765,288.855 66.765 C 288.709 66.765,288.183 66.408,287.686 65.971 C 287.188 65.535,286.194 64.840,285.475 64.427 C 283.730 63.424,279.842 61.107,278.382 60.201 C 276.523 59.046,266.595 54.118,266.128 54.118 C 265.896 54.118,265.580 54.000,265.426 53.856 C 265.025 53.481,260.724 51.638,257.404 50.418 C 255.839 49.844,253.765 49.066,252.794 48.690 C 236.574 42.405,209.615 38.670,190.147 40.010 M215.000 43.375 C 304.887 52.626,368.340 133.306,355.712 222.290 C 343.529 308.136,263.763 367.924,177.710 355.712 C 88.220 343.012,27.655 256.897,45.901 168.298 C 59.276 103.350,112.119 53.633,177.710 44.285 C 182.097 43.660,185.838 43.281,192.206 42.817 C 195.635 42.568,210.748 42.937,215.000 43.375 M189.118 46.508 C 101.371 52.406,36.172 131.504,47.082 218.824 C 57.597 302.980,134.461 362.834,218.529 352.330 C 309.921 340.910,370.866 252.115,348.657 162.736 C 330.735 90.609,263.352 41.519,189.118 46.508 M214.265 49.835 C 314.708 60.837,376.372 161.869,339.676 255.315 C 307.698 336.746,211.763 373.871,133.314 335.171 C 51.267 294.696,23.646 192.229,74.281 116.176 C 100.693 76.507,141.928 53.002,191.618 49.291 C 194.973 49.040,210.390 49.411,214.265 49.835 M192.794 80.466 C 192.147 80.529,189.971 80.723,187.959 80.898 C 166.033 82.802,142.704 92.019,125.221 105.685 L 122.440 107.859 117.764 107.297 C 99.860 105.145,91.783 106.689,83.589 113.829 C 73.252 122.835,73.326 141.972,83.750 155.735 L 85.755 158.382 84.205 162.941 C 73.525 194.354,76.109 229.119,91.299 258.382 C 93.225 262.093,97.026 268.594,97.633 269.215 C 97.764 269.350,97.506 270.408,97.060 271.568 C 93.732 280.223,93.939 289.690,97.616 296.995 C 105.069 311.799,123.736 317.392,140.049 309.709 C 140.769 309.370,141.119 309.485,144.314 311.113 C 178.859 328.706,220.542 328.742,254.911 311.206 C 258.069 309.595,258.238 309.544,259.028 309.959 C 266.874 314.076,278.803 314.149,287.309 310.132 C 298.131 305.020,303.693 296.074,303.665 283.824 C 303.652 278.381,303.496 277.407,301.863 272.608 L 301.099 270.364 303.007 267.314 C 322.490 236.184,327.011 198.398,315.420 163.587 C 313.504 157.833,313.498 158.818,315.464 156.176 C 325.582 142.576,326.318 124.870,317.164 115.288 C 309.066 106.811,301.156 105.119,280.825 107.513 L 277.091 107.952 274.250 105.731 C 256.853 92.132,234.781 83.333,211.912 80.879 C 208.925 80.558,194.945 80.256,192.794 80.466 M212.941 83.958 C 234.259 86.498,253.430 94.031,270.532 106.587 L 272.975 108.381 272.002 108.583 C 271.467 108.694,269.640 108.945,267.941 109.140 L 264.853 109.494 261.828 107.529 C 247.658 98.324,232.630 92.780,214.718 90.148 C 212.055 89.757,209.838 89.475,209.792 89.522 C 209.745 89.569,209.620 91.010,209.516 92.724 L 209.325 95.841 206.942 96.487 C 202.581 97.668,197.251 97.554,192.322 96.175 L 191.262 95.878 190.893 92.771 C 190.443 88.973,190.791 89.143,185.178 89.973 C 166.545 92.727,150.638 98.563,137.081 107.616 L 134.376 109.423 130.644 108.958 C 128.591 108.702,126.807 108.467,126.679 108.434 C 126.414 108.366,130.182 105.557,133.676 103.219 C 156.542 87.915,186.023 80.751,212.941 83.958 M185.352 99.416 C 185.465 100.303,185.696 102.221,185.866 103.676 C 186.167 106.260,186.478 108.904,187.045 113.676 C 188.573 126.557,190.412 136.449,191.779 139.142 C 194.936 145.357,205.556 146.248,209.188 140.602 C 210.990 137.801,214.230 121.605,214.986 111.618 C 215.170 109.191,215.454 105.832,215.618 104.154 C 215.781 102.475,215.826 100.390,215.718 99.521 C 215.483 97.639,215.141 97.708,220.012 98.647 C 276.132 109.464,314.796 164.642,305.292 220.350 C 305.131 221.290,304.870 222.820,304.711 223.750 C 297.249 267.340,259.578 303.360,214.853 309.672 C 137.651 320.566,75.226 248.751,96.738 173.788 C 103.046 151.803,115.299 134.035,135.058 118.216 C 138.080 115.797,144.747 111.631,150.924 108.302 C 158.214 104.373,169.791 100.414,179.412 98.560 C 185.311 97.423,185.095 97.392,185.352 99.416 M200.441 101.901 C 202.868 101.903,205.820 101.787,207.002 101.643 L 209.151 101.383 208.975 104.442 C 208.558 111.731,207.570 119.893,206.025 128.824 C 204.836 135.701,203.644 137.941,201.176 137.941 C 198.693 137.941,197.610 137.105,196.994 134.713 C 196.343 132.185,196.198 131.306,195.295 124.412 C 195.157 123.360,194.892 121.441,194.706 120.147 C 194.357 117.719,194.082 115.681,193.557 111.618 C 193.390 110.324,193.051 107.953,192.803 106.349 C 192.555 104.746,192.353 102.973,192.353 102.410 L 192.353 101.387 194.191 101.643 C 195.202 101.783,198.015 101.900,200.441 101.901 M113.088 113.092 C 118.199 113.606,126.528 114.665,126.684 114.821 C 126.742 114.879,125.361 116.188,123.616 117.729 C 112.415 127.615,103.269 139.599,96.578 153.159 C 93.982 158.418,94.096 158.308,92.754 156.863 C 77.953 140.918,78.507 121.161,93.946 114.359 C 97.890 112.622,104.236 112.202,113.088 113.092 M303.127 113.579 C 309.685 115.564,314.438 120.188,316.529 126.618 C 317.342 129.118,317.507 136.690,316.805 139.265 C 314.928 146.146,311.837 151.521,306.583 157.038 L 305.062 158.634 304.407 157.185 C 297.234 141.332,285.683 125.971,273.430 115.987 C 272.809 115.481,272.411 115.000,272.547 114.917 C 272.767 114.783,281.208 113.716,287.941 112.971 C 292.692 112.445,300.400 112.754,303.127 113.579 M90.665 163.574 L 91.772 164.570 90.726 167.652 C 80.369 198.189,84.317 235.117,100.815 262.026 L 101.426 263.023 100.713 264.153 C 100.321 264.774,100.000 265.401,100.000 265.546 C 100.000 267.708,97.369 263.942,93.412 256.116 C 79.324 228.256,76.746 195.319,86.344 165.833 C 88.019 160.691,87.843 160.977,88.782 161.853 C 89.209 162.252,90.057 163.026,90.665 163.574 M313.175 166.176 C 323.526 198.352,319.397 234.346,302.032 263.308 L 299.608 267.352 298.502 265.367 C 297.520 263.604,297.441 263.314,297.790 262.770 C 314.635 236.571,318.950 194.890,307.795 166.127 L 307.377 165.048 309.348 163.125 C 311.700 160.830,311.370 160.567,313.175 166.176 M132.206 162.254 C 126.558 163.464,122.794 169.272,122.794 176.778 C 122.794 182.439,123.781 182.730,126.541 177.882 C 130.972 170.100,134.922 167.425,142.426 167.125 C 146.241 166.972,146.287 166.939,145.094 165.218 C 143.057 162.278,137.769 161.062,132.206 162.254 M257.500 162.021 C 256.035 162.412,254.318 163.421,253.351 164.460 C 251.694 166.241,251.778 166.379,254.654 166.608 C 262.472 167.232,266.783 170.196,270.487 177.493 C 272.920 182.286,273.405 182.685,274.314 180.642 C 276.014 176.822,273.877 168.255,270.346 164.734 C 268.069 162.463,261.249 161.023,257.500 162.021 M146.124 177.368 C 134.900 179.066,130.713 193.826,139.293 201.446 C 147.869 209.061,161.549 203.448,162.281 192.014 C 162.859 182.990,155.150 176.003,146.124 177.368 M247.941 177.273 C 240.188 177.938,234.338 185.410,235.536 193.119 C 237.272 204.282,250.617 208.828,258.829 201.052 C 268.334 192.053,261.052 176.148,247.941 177.273 M143.679 184.247 C 147.117 185.683,146.327 190.967,142.612 191.385 C 138.183 191.884,136.730 185.810,140.883 184.154 C 141.918 183.741,142.517 183.761,143.679 184.247 M257.503 184.247 C 260.279 185.407,260.445 189.752,257.763 191.025 C 255.094 192.291,252.353 190.579,252.353 187.647 C 252.353 184.900,254.955 183.182,257.503 184.247 M193.676 192.521 C 177.709 194.017,167.484 197.997,159.830 205.695 C 152.632 212.934,150.264 221.360,151.427 235.588 C 151.673 238.590,151.667 239.882,151.405 240.882 C 150.579 244.038,151.268 258.803,152.483 263.968 C 153.069 266.460,152.961 266.415,149.309 262.633 C 142.647 255.735,136.571 246.745,130.588 234.935 C 128.788 231.381,128.338 232.362,129.286 237.778 C 134.575 268.020,157.736 287.762,191.756 291.030 C 225.611 294.281,254.548 278.869,266.859 251.029 C 270.702 242.339,273.842 228.227,270.705 233.743 C 263.265 246.828,257.363 255.018,250.251 262.132 C 246.102 266.282,245.362 266.812,245.731 265.368 C 247.355 259.009,248.107 247.776,247.271 242.353 C 246.977 240.445,246.919 239.046,247.087 237.941 C 250.953 212.584,238.612 197.410,210.588 193.060 C 207.946 192.650,196.274 192.278,193.676 192.521 M207.562 201.181 C 213.438 201.945,217.762 202.989,221.874 204.634 C 224.387 205.640,228.476 207.726,228.814 208.175 C 228.900 208.289,229.344 208.591,229.800 208.846 C 234.108 211.257,238.228 217.806,239.114 223.653 C 239.601 226.866,239.446 226.908,235.866 224.548 C 227.948 219.327,220.240 216.442,209.412 214.645 C 206.402 214.145,192.882 214.147,190.147 214.647 C 189.015 214.854,187.294 215.167,186.324 215.343 C 178.477 216.765,170.133 220.167,163.280 224.736 C 159.472 227.275,159.578 227.282,159.829 224.509 C 160.988 211.717,171.775 203.697,191.176 201.201 C 193.944 200.845,204.878 200.831,207.562 201.181 M207.320 224.434 C 227.892 226.548,241.808 238.755,240.764 253.770 C 239.358 273.989,221.106 283.982,190.713 281.174 C 171.057 279.357,159.964 269.480,159.486 253.371 C 158.901 233.672,178.985 221.522,207.320 224.434 M267.421 224.192 C 266.362 224.531,264.412 226.499,264.412 227.228 C 264.412 227.622,264.660 227.654,266.103 227.448 C 271.751 226.640,275.000 227.888,276.945 231.609 C 277.933 233.499,278.346 233.543,278.475 231.772 C 278.833 226.854,272.552 222.547,267.421 224.192 M126.312 225.108 C 124.020 226.175,121.765 229.375,121.765 231.559 C 121.765 233.056,122.026 233.044,123.195 231.494 C 125.996 227.784,129.078 226.859,134.046 228.235 C 136.615 228.947,136.471 228.944,136.471 228.288 C 136.471 225.268,130.190 223.302,126.312 225.108 M199.486 234.834 C 193.685 235.932,189.493 239.776,187.517 245.809 C 187.076 247.157,186.912 247.354,186.226 247.357 C 185.020 247.364,184.736 247.691,184.376 249.486 C 183.946 251.627,184.123 252.059,185.432 252.059 L 186.471 252.059 186.471 253.518 C 186.471 254.487,186.316 255.104,186.008 255.356 C 184.677 256.449,184.462 256.803,184.265 258.231 C 184.024 259.982,184.170 260.216,185.579 260.347 C 186.506 260.433,186.622 260.548,186.852 261.618 C 187.703 265.579,189.143 268.531,191.198 270.526 C 195.804 275.000,207.567 274.818,212.466 270.198 C 213.890 268.855,213.815 268.275,211.985 266.503 C 210.231 264.803,209.648 264.688,208.219 265.758 C 202.528 270.017,194.706 267.274,194.706 261.018 L 194.706 260.294 199.632 260.290 C 205.299 260.284,205.071 260.365,205.543 258.212 C 206.138 255.492,206.342 255.588,199.986 255.588 C 193.814 255.588,193.974 255.646,194.267 253.516 L 194.467 252.059 199.550 252.059 C 205.258 252.059,205.024 252.148,205.581 249.773 C 206.147 247.355,206.142 247.353,200.091 247.353 L 194.960 247.353 195.162 246.691 C 196.943 240.860,202.505 238.537,206.856 241.806 C 208.788 243.258,209.003 243.240,211.151 241.445 C 213.138 239.785,213.290 239.283,212.201 237.989 C 209.939 235.300,204.350 233.914,199.486 234.834 M109.058 274.191 C 110.344 275.849,111.689 277.537,112.046 277.941 C 112.403 278.346,113.399 279.471,114.260 280.441 C 119.852 286.751,128.510 294.250,135.662 298.976 C 139.054 301.218,139.125 301.017,134.180 303.150 C 122.400 308.231,107.812 302.162,103.988 290.588 C 102.134 284.977,103.270 275.461,106.262 271.544 C 106.653 271.032,106.482 270.869,109.058 274.191 M292.892 272.721 C 298.044 282.916,295.602 294.740,287.115 300.694 C 280.131 305.592,269.120 306.150,261.691 301.981 C 260.211 301.151,260.211 301.151,263.219 299.129 C 273.488 292.224,283.177 283.173,290.260 273.869 C 292.408 271.047,292.112 271.176,292.892 272.721 M157.630 310.432 C 186.465 321.840,220.291 320.736,248.205 307.475 C 252.176 305.588,251.717 305.637,253.600 306.904 L 255.117 307.927 251.603 309.585 C 217.839 325.518,181.452 325.458,147.426 309.415 C 143.620 307.620,143.729 307.779,145.484 306.577 L 146.831 305.654 150.237 307.254 C 152.110 308.134,155.437 309.565,157.630 310.432 " stroke="none" fill="#464545" fill-rule="evenodd"></path><path id="path1" d="M192.206 42.817 C 168.580 44.538,150.633 49.140,131.617 58.355 C 66.658 89.831,31.378 161.180,45.901 231.702 C 62.665 313.103,139.902 367.404,222.290 355.712 C 308.136 343.529,367.924 263.763,355.712 177.710 C 345.982 109.152,292.065 54.793,223.529 44.444 C 214.797 43.125,199.142 42.312,192.206 42.817 M209.265 46.478 C 305.078 52.822,371.768 143.960,348.657 236.970 C 329.940 312.296,257.596 361.952,180.588 352.330 C 89.197 340.910,28.252 252.115,50.461 162.736 C 68.309 90.907,135.655 41.603,209.265 46.478 M191.618 49.291 C 162.850 51.439,139.430 59.124,117.059 73.757 C 47.474 119.272,27.937 212.750,73.463 282.353 C 115.035 345.911,197.904 368.667,265.804 335.171 C 347.851 294.696,375.472 192.229,324.836 116.176 C 301.321 80.857,263.327 56.776,221.618 50.754 C 213.214 49.540,198.129 48.805,191.618 49.291 M211.912 80.879 C 234.781 83.333,256.853 92.132,274.250 105.731 L 277.091 107.952 280.825 107.513 C 301.156 105.119,309.066 106.811,317.164 115.288 C 326.318 124.870,325.582 142.576,315.464 156.176 C 313.498 158.818,313.504 157.833,315.420 163.587 C 327.011 198.398,322.490 236.184,303.007 267.314 L 301.099 270.364 301.863 272.608 C 305.917 284.524,303.633 296.378,295.767 304.244 C 286.645 313.366,270.350 315.900,259.028 309.959 C 258.238 309.544,258.069 309.595,254.911 311.206 C 220.542 328.742,178.859 328.706,144.314 311.113 C 141.119 309.485,140.769 309.370,140.049 309.709 C 113.006 322.445,86.528 298.953,97.060 271.568 C 97.506 270.408,97.764 269.350,97.633 269.215 C 97.026 268.594,93.225 262.093,91.299 258.382 C 76.109 229.119,73.525 194.354,84.205 162.941 L 85.755 158.382 83.750 155.735 C 73.326 141.972,73.252 122.835,83.589 113.829 C 91.783 106.689,99.860 105.145,117.764 107.297 L 122.440 107.859 125.221 105.685 C 142.704 92.019,166.033 82.802,187.959 80.898 C 189.971 80.723,192.147 80.529,192.794 80.466 C 194.945 80.256,208.925 80.558,211.912 80.879 " stroke="none" fill="#ebd161" fill-rule="evenodd"></path><path id="path2" d="M183.382 97.852 C 121.951 106.374,80.094 169.465,95.737 229.961 C 116.504 310.276,216.326 338.027,274.728 279.720 C 335.715 218.833,303.896 114.344,219.559 98.548 C 215.206 97.733,215.477 97.674,215.704 99.384 C 216.685 106.777,211.687 137.177,208.846 141.099 C 205.038 146.356,194.170 144.982,191.611 138.921 C 189.951 134.990,188.284 124.706,185.661 102.210 C 185.109 97.476,185.175 97.603,183.382 97.852 M97.875 113.096 C 93.103 114.046,87.448 117.832,84.951 121.749 C 83.859 123.463,83.817 123.382,86.103 123.956 C 94.141 125.972,101.576 131.054,104.806 136.740 L 105.482 137.931 106.931 135.951 C 111.225 130.079,118.033 122.642,123.616 117.724 C 125.361 116.186,126.742 114.879,126.684 114.821 C 126.526 114.663,118.161 113.611,112.974 113.096 C 107.530 112.556,100.588 112.556,97.875 113.096 M288.382 112.948 C 282.977 113.480,272.787 114.781,272.583 114.966 C 272.467 115.071,273.192 115.816,274.194 116.622 C 278.563 120.138,286.504 128.587,291.072 134.582 L 293.107 137.252 293.833 136.052 C 297.170 130.539,308.639 123.529,314.326 123.529 C 316.579 123.529,312.087 118.206,307.569 115.521 C 303.391 113.040,296.648 112.135,288.382 112.948 M140.159 162.221 C 142.468 162.822,144.234 163.887,145.143 165.226 C 146.320 166.957,146.214 167.059,143.250 167.059 C 135.467 167.059,131.098 169.897,126.520 177.925 C 125.500 179.713,124.619 181.176,124.562 181.176 C 124.506 181.176,124.265 181.251,124.026 181.343 C 123.175 181.670,122.548 179.161,122.717 176.103 C 123.296 165.633,130.683 159.754,140.159 162.221 M266.891 162.647 C 272.028 164.272,276.139 173.005,274.714 179.265 C 273.860 183.016,273.205 182.756,270.545 177.609 C 266.670 170.112,262.509 167.235,254.632 166.607 C 251.727 166.375,251.798 166.438,252.806 164.982 C 254.918 161.935,261.297 160.878,266.891 162.647 M153.156 177.992 C 165.992 182.794,165.095 201.113,151.855 204.561 C 140.537 207.509,130.883 195.468,136.108 184.922 C 139.262 178.558,146.646 175.556,153.156 177.992 M252.097 177.482 C 268.804 181.024,265.227 206.299,248.216 204.907 C 232.940 203.658,230.783 181.320,245.588 177.696 C 248.615 176.955,249.477 176.927,252.097 177.482 M210.588 193.052 C 231.003 196.176,243.990 205.894,247.088 220.365 C 247.760 223.503,247.760 233.531,247.087 237.941 C 246.919 239.046,246.977 240.444,247.272 242.353 C 248.114 247.817,247.368 258.957,245.731 265.368 C 245.356 266.837,246.143 266.265,250.395 261.981 C 257.293 255.031,264.451 245.059,270.767 233.603 C 272.353 230.726,272.461 232.704,271.041 238.602 C 263.004 271.958,234.391 292.534,197.647 291.380 C 160.883 290.227,134.820 269.798,129.283 237.794 C 128.438 232.909,128.792 231.361,130.139 234.049 C 136.561 246.865,143.892 257.511,151.136 264.541 C 152.927 266.279,153.018 266.241,152.479 263.968 C 151.266 258.851,150.573 244.074,151.396 240.882 C 151.651 239.896,151.657 238.547,151.422 235.588 C 150.280 221.224,152.604 212.963,159.830 205.695 C 167.431 198.050,177.539 194.083,193.382 192.527 C 195.915 192.278,207.927 192.645,210.588 193.052 M273.024 224.413 C 275.317 225.122,276.494 226.198,277.683 228.676 C 279.100 231.633,278.684 234.975,277.250 232.146 C 275.103 227.908,271.986 226.616,265.956 227.464 C 263.764 227.773,263.699 227.617,265.277 225.824 C 267.085 223.770,269.511 223.328,273.024 224.413 M133.155 224.753 C 134.237 225.081,136.471 227.455,136.471 228.277 C 136.471 228.945,136.618 228.948,134.046 228.235 C 128.988 226.834,124.765 228.295,122.755 232.142 C 122.217 233.173,121.765 232.921,121.765 231.591 C 121.765 226.688,127.729 223.108,133.155 224.753 M191.570 224.439 C 171.249 226.808,159.024 237.831,159.486 253.371 C 159.970 269.699,171.021 279.374,191.278 281.208 C 221.881 283.979,240.502 273.162,240.697 252.500 C 240.872 233.876,218.795 221.266,191.570 224.439 M207.235 235.115 C 210.031 235.854,212.941 238.052,212.941 239.424 C 212.941 240.075,209.627 242.941,208.874 242.941 C 208.595 242.941,207.689 242.432,206.860 241.809 C 202.515 238.545,196.940 240.871,195.162 246.691 L 194.960 247.353 200.091 247.353 C 206.117 247.353,206.120 247.354,205.607 249.748 C 205.096 252.131,205.284 252.059,199.561 252.059 L 194.488 252.059 194.291 253.539 C 194.011 255.649,193.842 255.588,199.986 255.588 C 206.339 255.588,206.127 255.488,205.564 258.213 C 205.122 260.355,205.324 260.284,199.632 260.290 L 194.706 260.294 194.706 261.018 C 194.706 264.867,198.038 267.810,202.353 267.772 C 205.038 267.749,205.665 267.531,208.338 265.692 C 209.953 264.582,209.940 264.579,212.034 266.564 C 213.846 268.281,213.897 268.869,212.359 270.289 C 208.578 273.779,201.322 274.813,194.961 272.767 C 191.079 271.518,188.309 267.953,187.100 262.647 L 186.597 260.441 185.431 260.294 C 183.794 260.088,183.789 256.582,185.424 255.836 C 186.950 255.142,186.956 252.059,185.432 252.059 C 184.123 252.059,183.946 251.627,184.376 249.486 C 184.736 247.691,185.020 247.364,186.226 247.357 C 186.912 247.354,187.076 247.157,187.517 245.809 C 190.360 237.129,198.387 232.776,207.235 235.115 " stroke="none" fill="#9b5cfb" fill-rule="evenodd"></path><path id="path3" d="M185.441 39.737 C 184.632 39.871,182.846 40.122,181.471 40.294 C 174.153 41.211,167.911 42.243,166.618 42.749 C 165.971 43.002,165.074 43.215,164.625 43.222 C 164.176 43.229,163.056 43.500,162.135 43.824 C 161.215 44.147,159.975 44.412,159.381 44.412 C 158.704 44.412,158.041 44.641,157.606 45.025 C 157.054 45.512,157.024 45.602,157.458 45.463 C 174.317 40.076,204.667 38.175,222.941 41.362 C 223.655 41.487,223.880 41.447,223.676 41.233 C 223.515 41.064,221.728 40.774,219.706 40.591 C 217.684 40.407,215.566 40.116,215.000 39.943 C 213.743 39.560,187.604 39.378,185.441 39.737 M228.971 42.338 C 232.097 43.008,232.603 43.045,231.100 42.493 C 230.491 42.270,229.168 42.016,228.158 41.928 C 226.419 41.778,226.461 41.799,228.971 42.338 M239.265 44.539 C 240.104 44.917,241.836 45.248,241.567 44.979 C 241.405 44.817,240.755 44.622,240.122 44.545 C 239.489 44.469,239.103 44.466,239.265 44.539 M245.147 46.188 C 247.411 46.917,247.847 46.909,246.218 46.170 C 245.513 45.850,244.586 45.595,244.159 45.604 C 243.634 45.615,243.953 45.804,245.147 46.188 M153.382 46.334 C 152.249 46.853,153.059 46.845,154.412 46.324 C 155.056 46.076,155.221 45.928,154.853 45.929 C 154.529 45.929,153.868 46.112,153.382 46.334 M150.891 46.981 C 150.491 47.056,149.895 47.315,149.567 47.556 C 148.990 47.981,148.994 47.989,149.706 47.779 C 152.160 47.057,152.805 46.623,150.891 46.981 M248.529 47.206 C 249.872 47.723,250.401 47.715,249.265 47.195 C 248.779 46.973,248.184 46.795,247.941 46.800 C 247.699 46.805,247.963 46.988,248.529 47.206 M147.206 48.227 C 146.721 48.352,145.926 48.668,145.441 48.931 C 144.956 49.193,144.344 49.409,144.081 49.410 C 143.516 49.412,139.118 51.377,139.118 51.628 C 139.118 51.722,139.256 51.714,139.425 51.609 C 139.594 51.505,141.811 50.641,144.352 49.690 C 148.588 48.104,149.488 47.643,147.206 48.227 M252.059 48.363 C 253.289 48.860,253.762 48.932,253.368 48.560 C 253.214 48.416,252.625 48.218,252.059 48.122 L 251.029 47.946 252.059 48.363 M136.544 52.497 C 136.018 52.726,135.588 52.979,135.588 53.059 C 135.588 53.200,137.668 52.411,137.917 52.175 C 138.174 51.931,137.461 52.099,136.544 52.497 M132.706 54.082 C 131.052 54.822,129.860 55.588,130.360 55.588 C 130.462 55.588,131.639 55.059,132.977 54.412 C 135.739 53.076,135.527 52.818,132.706 54.082 M128.750 56.051 C 127.610 56.669,127.739 56.883,128.897 56.294 C 130.006 55.730,130.202 55.584,129.828 55.600 C 129.680 55.606,129.195 55.809,128.750 56.051 M123.032 58.961 C 121.060 59.979,119.090 61.092,118.654 61.435 C 118.219 61.778,117.721 62.059,117.550 62.059 C 117.378 62.059,116.767 62.372,116.192 62.754 C 115.617 63.137,112.202 65.389,108.603 67.760 C 105.004 70.131,102.059 72.188,102.059 72.331 C 102.059 72.474,101.460 72.942,100.729 73.370 C 99.998 73.799,98.936 74.573,98.370 75.090 C 97.049 76.296,95.545 77.579,93.585 79.172 C 89.594 82.415,76.637 95.729,75.176 98.088 C 74.875 98.574,74.315 99.301,73.931 99.706 C 72.013 101.727,70.654 103.487,68.669 106.523 C 67.471 108.355,66.083 110.449,65.585 111.176 C 65.086 111.904,64.138 113.360,63.477 114.412 C 62.816 115.463,61.896 116.909,61.432 117.624 C 60.968 118.339,60.588 119.046,60.588 119.195 C 60.588 119.344,60.324 119.803,60.000 120.214 C 59.676 120.625,59.412 121.198,59.412 121.488 C 59.412 121.777,59.114 122.388,58.750 122.846 C 57.920 123.890,57.787 124.130,55.288 129.069 C 54.159 131.300,53.235 133.397,53.235 133.729 C 53.235 134.061,52.989 134.648,52.688 135.034 C 52.386 135.420,52.039 136.057,51.915 136.450 C 51.792 136.844,51.444 137.572,51.141 138.068 C 50.838 138.564,50.590 139.171,50.589 139.416 C 50.589 139.661,50.324 140.356,50.000 140.959 C 49.676 141.563,49.412 142.268,49.412 142.527 C 49.412 142.786,49.220 143.349,48.985 143.778 C 48.356 144.929,45.987 152.222,45.579 154.265 C 45.386 155.235,45.059 156.360,44.853 156.765 C 44.263 157.924,43.233 161.856,43.068 163.579 C 42.985 164.441,42.732 165.809,42.504 166.618 C 42.277 167.426,41.959 168.949,41.797 170.000 C 41.635 171.051,41.365 172.574,41.197 173.382 C 41.029 174.191,40.756 176.110,40.592 177.647 C 40.427 179.184,40.127 181.037,39.926 181.765 C 39.299 184.027,39.417 219.061,40.059 221.176 C 40.329 222.066,40.638 223.787,40.747 225.000 C 40.855 226.213,41.195 228.190,41.501 229.394 C 41.808 230.597,42.059 232.255,42.059 233.078 C 42.059 233.907,42.248 234.846,42.484 235.181 C 42.717 235.515,42.999 236.504,43.110 237.379 C 43.221 238.254,43.504 239.434,43.739 240.000 C 43.975 240.566,44.289 241.862,44.437 242.879 C 44.585 243.896,44.895 245.021,45.126 245.379 C 45.356 245.737,45.640 246.559,45.757 247.206 C 45.873 247.853,46.214 248.844,46.514 249.407 C 46.814 249.971,47.059 250.737,47.059 251.110 C 47.059 251.483,47.324 252.307,47.647 252.941 C 47.971 253.575,48.235 254.267,48.235 254.478 C 48.235 254.689,48.500 255.356,48.824 255.959 C 49.147 256.563,49.412 257.383,49.412 257.782 C 49.412 258.180,49.661 258.743,49.966 259.033 C 50.270 259.322,50.609 259.976,50.718 260.486 C 50.827 260.996,51.174 261.917,51.488 262.533 C 51.802 263.150,52.060 263.857,52.061 264.106 C 52.062 264.355,52.326 264.956,52.647 265.441 C 52.968 265.926,53.232 266.539,53.233 266.802 C 53.234 267.066,53.433 267.445,53.674 267.645 C 53.916 267.846,54.260 268.556,54.440 269.223 C 54.620 269.890,55.018 270.788,55.325 271.219 C 55.631 271.650,55.882 272.196,55.882 272.432 C 55.882 272.669,56.147 273.198,56.471 273.610 C 56.794 274.021,57.059 274.448,57.059 274.559 C 57.059 274.670,57.324 275.097,57.647 275.508 C 57.971 275.919,58.235 276.482,58.235 276.759 C 58.235 277.036,58.500 277.568,58.824 277.941 C 59.147 278.314,59.412 278.778,59.412 278.972 C 59.412 279.166,60.007 280.231,60.735 281.340 C 61.463 282.448,62.059 283.515,62.059 283.710 C 62.059 283.905,62.588 284.735,63.235 285.553 C 63.882 286.372,64.412 287.162,64.412 287.309 C 64.412 287.542,65.599 289.204,67.627 291.811 C 67.962 292.241,68.235 292.717,68.235 292.867 C 68.235 293.018,69.091 294.255,70.137 295.615 C 71.184 296.975,72.606 298.861,73.299 299.806 C 73.992 300.751,74.956 301.941,75.441 302.451 C 75.926 302.961,76.542 303.694,76.810 304.080 C 77.824 305.541,86.877 315.030,87.680 315.473 C 87.941 315.617,89.728 317.213,91.651 319.018 C 93.574 320.824,96.272 323.137,97.647 324.158 C 99.022 325.178,100.279 326.173,100.441 326.367 C 100.813 326.814,105.098 330.128,106.967 331.415 C 109.931 333.455,110.479 333.819,111.765 334.601 C 112.493 335.043,113.462 335.711,113.920 336.085 C 114.377 336.459,114.923 336.765,115.134 336.765 C 115.344 336.765,115.687 336.971,115.896 337.223 C 116.106 337.475,116.728 337.869,117.279 338.100 C 117.830 338.330,118.833 338.889,119.508 339.341 C 120.877 340.258,133.842 346.765,134.302 346.765 C 134.463 346.765,135.579 347.255,136.782 347.854 C 139.111 349.013,139.851 349.306,144.706 350.993 C 146.404 351.584,148.145 352.263,148.575 352.504 C 149.004 352.744,149.588 352.941,149.873 352.941 C 150.157 352.941,151.990 353.451,153.945 354.075 C 157.806 355.306,160.507 356.024,163.614 356.649 C 164.712 356.869,165.837 357.168,166.114 357.313 C 166.391 357.457,167.666 357.671,168.948 357.788 C 170.230 357.905,171.951 358.190,172.772 358.420 C 173.593 358.651,175.985 359.032,178.088 359.267 C 180.191 359.502,182.706 359.848,183.676 360.036 C 186.236 360.531,215.651 360.573,217.059 360.083 C 217.625 359.887,219.875 359.579,222.059 359.401 C 224.243 359.222,226.625 358.897,227.353 358.679 C 228.081 358.462,229.663 358.196,230.869 358.089 C 232.076 357.981,233.425 357.706,233.867 357.477 C 234.310 357.249,235.549 356.937,236.621 356.785 C 237.693 356.633,238.751 356.358,238.973 356.174 C 239.196 355.990,240.331 355.707,241.496 355.545 C 242.661 355.384,243.893 355.075,244.234 354.860 C 244.574 354.645,245.449 354.375,246.176 354.260 C 246.904 354.146,248.055 353.802,248.734 353.497 C 249.412 353.191,250.198 352.941,250.479 352.941 C 250.761 352.941,251.529 352.700,252.187 352.405 C 253.307 351.903,253.834 351.699,256.250 350.834 C 258.677 349.965,261.671 348.712,262.198 348.345 C 262.517 348.123,262.988 347.941,263.244 347.941 C 263.783 347.941,275.668 342.038,276.413 341.400 C 276.687 341.165,277.537 340.678,278.301 340.317 C 279.064 339.957,280.165 339.339,280.746 338.944 C 281.327 338.550,282.224 338.035,282.739 337.799 C 284.885 336.819,292.941 331.345,292.941 330.867 C 292.941 330.714,291.717 331.434,290.221 332.468 C 241.884 365.874,176.447 369.375,124.422 341.340 C 40.571 296.153,14.157 189.585,67.156 110.307 C 81.071 89.494,103.089 69.613,124.296 58.714 C 126.551 57.555,127.353 57.057,126.912 57.089 C 126.750 57.101,125.004 57.944,123.032 58.961 M303.088 77.248 C 304.586 78.577,305.137 78.964,304.560 78.282 C 304.239 77.903,303.711 77.456,303.386 77.290 C 303.060 77.123,302.926 77.104,303.088 77.248 M311.612 84.936 C 313.064 86.427,314.301 87.647,314.361 87.647 C 314.595 87.647,312.698 85.647,310.882 83.980 C 309.487 82.699,309.684 82.957,311.612 84.936 M192.941 83.412 C 170.232 84.981,148.698 92.504,131.166 104.996 C 126.027 108.658,126.084 108.335,130.471 108.911 L 134.200 109.401 137.615 107.249 C 152.344 97.963,166.918 92.619,184.597 90.022 C 186.883 89.686,189.148 89.412,189.632 89.412 L 190.511 89.412 190.844 92.005 C 191.027 93.432,191.176 94.887,191.176 95.241 C 191.176 95.594,191.226 95.882,191.286 95.882 C 191.347 95.882,192.439 96.151,193.713 96.479 C 198.333 97.668,204.978 97.471,208.394 96.043 L 209.319 95.657 209.502 92.642 C 209.727 88.952,208.996 89.281,215.024 90.165 C 232.729 92.763,247.778 98.349,261.898 107.566 L 264.825 109.477 268.025 109.108 C 273.577 108.469,273.464 108.774,269.264 105.735 C 247.672 90.113,218.682 81.634,192.941 83.412 M316.029 89.412 C 316.826 90.221,317.544 90.882,317.625 90.882 C 317.706 90.882,317.120 90.221,316.324 89.412 C 315.527 88.603,314.809 87.941,314.728 87.941 C 314.647 87.941,315.233 88.603,316.029 89.412 M335.856 114.853 C 336.366 115.851,336.755 116.339,336.760 115.988 C 336.763 115.804,336.493 115.341,336.160 114.959 C 335.685 114.413,335.619 114.391,335.856 114.853 M346.393 134.709 C 346.648 135.358,346.910 135.835,346.975 135.770 C 347.116 135.629,346.267 133.529,346.068 133.529 C 345.992 133.529,346.138 134.060,346.393 134.709 M350.002 143.250 C 350.003 143.323,350.735 145.434,351.629 147.941 C 352.523 150.449,353.198 152.169,353.129 151.765 C 352.837 150.047,349.988 142.291,350.002 143.250 M87.414 162.702 C 75.609 194.357,79.462 233.060,97.433 263.327 L 99.321 266.507 100.360 264.763 L 101.399 263.018 99.528 259.818 C 85.479 235.790,81.227 203.087,88.520 175.147 C 89.153 172.721,90.139 169.353,90.710 167.663 C 91.281 165.974,91.719 164.577,91.683 164.560 C 91.647 164.543,90.803 163.766,89.807 162.834 L 87.997 161.140 87.414 162.702 M309.375 163.120 L 307.450 165.045 308.446 168.037 C 318.486 198.183,314.941 233.162,299.064 260.616 L 297.432 263.439 298.449 265.249 C 299.685 267.450,299.460 267.586,302.144 263.015 C 319.593 233.302,323.489 198.199,312.957 165.588 C 311.376 160.695,311.627 160.868,309.375 163.120 M140.967 184.150 C 137.062 185.279,138.186 191.471,142.295 191.471 C 146.080 191.471,147.196 185.969,143.730 184.395 C 142.357 183.772,142.294 183.766,140.967 184.150 M254.716 184.204 C 252.288 185.049,251.563 188.265,253.360 190.225 C 255.552 192.618,259.706 191.116,259.706 187.931 C 259.706 185.092,257.310 183.303,254.716 184.204 M358.892 221.471 C 358.892 222.037,358.952 222.268,359.026 221.985 C 359.100 221.702,359.100 221.239,359.026 220.956 C 358.952 220.673,358.892 220.904,358.892 221.471 M357.991 226.949 C 357.963 227.292,357.866 228.020,357.775 228.566 C 357.638 229.377,357.668 229.464,357.939 229.039 C 358.121 228.753,358.218 228.025,358.155 227.421 C 358.092 226.818,358.018 226.605,357.991 226.949 M356.507 234.559 C 356.482 234.882,356.394 235.478,356.311 235.882 L 356.160 236.618 356.475 235.896 C 356.648 235.499,356.736 234.904,356.670 234.573 C 356.554 233.986,356.550 233.986,356.507 234.559 M355.330 239.412 C 355.306 239.654,355.213 240.184,355.123 240.588 C 354.982 241.224,355.005 241.253,355.293 240.800 C 355.477 240.513,355.570 239.983,355.501 239.624 C 355.431 239.265,355.354 239.169,355.330 239.412 M353.864 244.857 C 353.179 247.366,353.173 247.540,353.815 246.188 C 354.158 245.466,354.400 244.541,354.352 244.133 C 354.284 243.559,354.174 243.723,353.864 244.857 M352.228 250.221 C 351.769 251.636,350.692 254.632,349.836 256.879 C 348.980 259.126,348.470 260.774,348.702 260.541 C 349.150 260.094,350.133 257.693,350.667 255.745 C 350.842 255.104,351.294 254.126,351.670 253.572 C 352.077 252.972,352.353 252.130,352.353 251.488 C 352.353 250.896,352.475 250.286,352.624 250.132 C 352.903 249.846,353.396 247.647,353.182 247.647 C 353.116 247.647,352.687 248.805,352.228 250.221 M347.197 263.452 C 346.032 266.227,342.690 273.134,340.900 276.471 C 340.075 278.007,339.635 278.964,339.921 278.596 C 341.671 276.347,342.059 275.749,342.059 275.293 C 342.059 275.014,342.324 274.449,342.647 274.037 C 342.971 273.626,343.235 273.097,343.235 272.861 C 343.235 272.625,343.482 272.117,343.783 271.731 C 344.084 271.345,344.431 270.699,344.553 270.294 C 344.675 269.890,344.940 269.360,345.140 269.118 C 345.341 268.875,345.658 268.222,345.844 267.666 C 346.031 267.110,346.359 266.449,346.573 266.196 C 347.015 265.674,348.354 261.786,348.160 261.591 C 348.090 261.521,347.656 262.359,347.197 263.452 M337.584 282.206 C 336.660 283.743,336.006 285.000,336.129 285.000 C 336.486 285.000,337.059 284.330,337.059 283.912 C 337.059 283.703,337.506 282.902,338.053 282.133 C 338.918 280.916,339.639 279.412,339.357 279.412 C 339.305 279.412,338.507 280.669,337.584 282.206 M334.997 286.397 C 334.392 287.423,334.388 287.463,334.938 286.966 C 335.439 286.515,336.021 285.294,335.737 285.294 C 335.687 285.294,335.354 285.790,334.997 286.397 M333.730 288.342 C 333.450 288.769,333.341 289.118,333.487 289.118 C 333.893 289.118,334.482 288.298,334.353 287.911 C 334.290 287.722,334.009 287.916,333.730 288.342 M330.885 292.515 C 330.341 293.316,328.884 295.302,327.647 296.930 C 326.409 298.558,325.295 300.080,325.170 300.312 C 324.660 301.262,327.848 297.652,328.501 296.541 C 328.890 295.880,329.518 294.977,329.898 294.535 C 330.278 294.093,330.588 293.614,330.588 293.470 C 330.588 293.325,330.932 292.889,331.352 292.499 C 331.773 292.110,332.062 291.626,331.995 291.425 C 331.928 291.225,331.428 291.715,330.885 292.515 M322.546 303.279 C 320.656 305.570,320.654 305.912,322.543 303.824 C 323.566 302.692,324.620 301.154,324.349 301.187 C 324.302 301.192,323.491 302.134,322.546 303.279 M145.465 306.645 L 144.043 307.605 147.541 309.358 C 179.139 325.198,218.649 325.368,250.930 309.803 L 254.948 307.866 253.474 306.874 C 251.666 305.658,252.066 305.632,248.939 307.161 C 218.806 321.894,181.345 321.969,150.429 307.358 L 146.887 305.685 145.465 306.645 M314.871 311.704 L 309.594 317.206 314.430 312.500 C 318.283 308.749,320.730 306.076,320.207 306.189 C 320.174 306.196,317.773 308.678,314.871 311.704 M307.330 319.003 C 306.285 320.128,300.631 324.816,296.912 327.642 C 292.395 331.075,292.095 331.420,295.751 328.979 C 296.713 328.336,297.665 327.586,297.867 327.312 C 298.070 327.037,298.731 326.514,299.338 326.148 C 299.945 325.782,300.989 325.010,301.657 324.433 C 302.326 323.855,303.365 322.985,303.965 322.500 C 305.927 320.914,308.359 318.555,308.199 318.395 C 308.112 318.308,307.721 318.582,307.330 319.003 " stroke="none" fill="#e2e2db" fill-rule="evenodd"></path><path id="path4" d="M192.353 102.410 C 192.353 102.973,192.555 104.746,192.803 106.349 C 193.051 107.953,193.390 110.324,193.557 111.618 C 194.082 115.681,194.357 117.719,194.706 120.147 C 194.892 121.441,195.157 123.360,195.295 124.412 C 196.198 131.306,196.343 132.185,196.994 134.713 C 197.610 137.105,198.693 137.941,201.176 137.941 C 203.644 137.941,204.836 135.701,206.025 128.824 C 207.570 119.893,208.558 111.731,208.975 104.442 L 209.151 101.383 207.002 101.643 C 204.257 101.976,196.584 101.976,194.191 101.643 L 192.353 101.387 192.353 102.410 M315.002 123.162 C 315.001 123.364,314.696 123.529,314.326 123.529 C 308.946 123.529,298.904 129.364,294.679 134.945 C 292.927 137.260,292.930 137.178,294.520 139.471 C 297.751 144.127,301.702 151.208,304.413 157.199 L 305.076 158.663 306.939 156.667 C 311.194 152.110,315.294 145.434,315.795 142.248 C 315.875 141.740,316.067 141.245,316.221 141.150 C 316.375 141.054,316.468 140.855,316.426 140.708 C 316.384 140.561,316.538 139.912,316.768 139.265 C 317.533 137.114,317.353 129.155,316.480 126.471 C 315.726 124.153,315.005 122.539,315.002 123.162 M83.911 123.897 C 82.803 125.357,81.928 130.869,82.177 134.810 C 82.671 142.625,86.020 149.609,92.754 156.863 C 94.096 158.308,93.982 158.418,96.578 153.159 C 98.634 148.991,102.289 142.644,104.393 139.586 C 105.537 137.923,105.527 137.759,104.158 135.723 C 100.651 130.505,94.561 126.407,87.099 124.243 C 84.240 123.413,84.275 123.417,83.911 123.897 M92.421 200.588 C 92.421 201.154,92.482 201.386,92.556 201.103 C 92.630 200.820,92.630 200.357,92.556 200.074 C 92.482 199.790,92.421 200.022,92.421 200.588 M191.176 201.201 C 171.775 203.697,160.988 211.717,159.829 224.509 C 159.578 227.282,159.472 227.275,163.280 224.736 C 170.133 220.167,178.477 216.765,186.324 215.343 C 187.294 215.167,189.015 214.854,190.147 214.647 C 192.882 214.147,206.402 214.145,209.412 214.645 C 220.240 216.442,227.948 219.327,235.866 224.548 C 239.446 226.908,239.601 226.866,239.114 223.653 C 238.228 217.806,234.108 211.257,229.800 208.846 C 229.344 208.591,228.900 208.289,228.814 208.175 C 228.476 207.726,224.387 205.640,221.874 204.634 C 217.762 202.989,213.438 201.945,207.562 201.181 C 204.878 200.831,193.944 200.845,191.176 201.201 M198.897 224.034 C 199.342 224.102,200.070 224.102,200.515 224.034 C 200.960 223.967,200.596 223.912,199.706 223.912 C 198.816 223.912,198.452 223.967,198.897 224.034 M106.262 271.544 C 103.270 275.461,102.134 284.977,103.988 290.588 C 107.812 302.162,122.400 308.231,134.180 303.150 C 139.125 301.017,139.054 301.218,135.662 298.976 C 128.510 294.250,119.852 286.751,114.260 280.441 C 113.399 279.471,112.403 278.346,112.046 277.941 C 111.689 277.537,110.344 275.849,109.058 274.191 C 106.482 270.869,106.653 271.032,106.262 271.544 M290.260 273.869 C 283.177 283.173,273.488 292.224,263.219 299.129 C 260.211 301.151,260.211 301.151,261.691 301.981 C 276.731 310.421,295.469 300.494,295.411 284.118 C 295.394 279.263,294.770 276.436,292.892 272.721 C 292.112 271.176,292.408 271.047,290.260 273.869 " stroke="none" fill="#7b16f8" fill-rule="evenodd"></path></g></svg>